Coordinates
version=1
nRows=19
nColumns=24
inDegrees=yes

Units are S.I. units (second, meters, Newtons, ...)
Angles are in degrees.

endheader
time	pelvis_tilt	pelvis_list	pelvis_rotation	pelvis_tx	pelvis_ty	pelvis_tz	hip_flexion_r	hip_adduction_r	hip_rotation_r	knee_angle_r	ankle_angle_r	subtalar_angle_r	mtp_angle_r	hip_flexion_l	hip_adduction_l	hip_rotation_l	knee_angle_l	ankle_angle_l	subtalar_angle_l	mtp_angle_l	lumbar_extension	lumbar_bending	lumbar_rotation
      4.25000000	     -8.09996820	     -6.00655897	      9.44785274	     -0.32390249	     -0.03792900	      0.70026096	     29.15226990	      3.26958660	     -0.65923744	    -35.27413611	      5.56325432	     -2.11379184	     17.03056598	     14.31646108	     -5.28630872	      3.17496445	    -62.70127245	    -19.16672416	      6.06407041	     26.19079663	      8.71502654	     12.65315251	    -10.86966029
      4.25500000	     -8.01581005	     -6.00246104	      9.24957150	     -0.31677039	     -0.03668821	      0.70060440	     28.37727638	      3.51411189	     -0.37667447	    -34.85874632	      5.82308446	     -2.19520355	     16.90594989	     15.28889310	     -5.28372677	      2.87242609	    -63.92927925	    -18.63799066	      6.29729474	     27.25083442	      8.58759088	     12.71549203	    -10.43073358
      4.26000000	     -7.90485021	     -6.02388173	      9.12228829	     -0.30961414	     -0.03531602	      0.70088599	     27.53757436	      3.73798208	     -0.24545209	    -34.38157804	      6.12015574	     -2.26702261	     16.46190560	     16.22679097	     -5.30994511	      2.63807853	    -64.95692141	    -18.67699941	      6.23401221	     29.28343558	      8.46666093	     12.78859408	    -10.04320862
      4.26500000	     -7.83564565	     -6.03965825	      8.93742468	     -0.30248702	     -0.03398124	      0.70118597	     26.72416744	      3.98278203	      0.03152507	    -33.85886929	      6.30783298	     -2.42333733	     16.22705959	     17.20105842	     -5.32638061	      2.37028941	    -65.97748969	    -18.28694746	      6.35126966	     29.95355291	      8.38101045	     12.85800311	     -9.62127636
      4.27000000	     -7.75300226	     -6.07756544	      8.77334538	     -0.29534510	     -0.03260775	      0.70153320	     25.87102206	      4.24791235	      0.28231679	    -33.29073886	      6.50808232	     -2.64954006	     15.71862531	     18.15298901	     -5.38413142	      2.11553912	    -66.86891799	    -18.06258329	      6.33254109	     30.83114643	      8.30146666	     12.93120941	     -9.27851626
      4.27500000	     -7.67670266	     -6.10213011	      8.62739032	     -0.28819514	     -0.03118937	      0.70180578	     24.99237303	      4.47926877	      0.54397513	    -32.67694105	      6.73421286	     -2.78557104	     15.12976162	     19.09660927	     -5.40722127	      1.89990494	    -67.65020796	    -17.91883205	      6.21761901	     31.55734329	      8.24067011	     12.98864535	     -8.93279859
      4.28000000	     -7.60638150	     -6.12801882	      8.49087610	     -0.28106733	     -0.02978449	      0.70204635	     24.10519918	      4.69598715	      0.78891293	    -32.03082633	      6.93705608	     -2.91528149	     14.59749057	     20.03894702	     -5.42365123	      1.69973076	    -68.34948755	    -17.74059213	      6.03390850	     32.04848659	      8.19152871	     13.04179397	     -8.60691090
      4.28500000	     -7.54178527	     -6.15849284	      8.35284220	     -0.27394308	     -0.02839599	      0.70229087	     23.20789265	      4.91307170	      1.04745433	    -31.34939633	      7.10343608	     -3.06024344	     14.13563145	     20.97565098	     -5.44547641	      1.50560573	    -68.96403351	    -17.53686986	      5.79941282	     32.39871714	      8.15357113	     13.09550923	     -8.28813592
      4.29000000	     -7.48395021	     -6.20512178	      8.21820984	     -0.26684433	     -0.02704762	      0.70248018	     22.31069998	      5.12437506	      1.26732722	    -30.63856613	      7.22688582	     -3.16763940	     13.83714532	     21.91327044	     -5.47307691	      1.33146981	    -69.50495254	    -17.29616911	      5.50137769	     32.63439797	      8.12439180	     13.16844628	     -7.95426239
      4.29500000	     -7.42961286	     -6.24662288	      8.06957563	     -0.25970969	     -0.02572479	      0.70274776	     21.39695627	      5.34931161	      1.56685837	    -29.89571360	      7.31847001	     -3.37153576	     13.48128786	     22.83174283	     -5.50954764	      1.15076458	    -69.95566174	    -17.04294135	      5.20073431	     32.85711629	      8.10284808	     13.22455221	     -7.64434814
      4.30000000	     -7.37766763	     -6.27867136	      7.91242617	     -0.25256533	     -0.02444364	      0.70304077	     20.47621788	      5.56316217	      1.88246914	    -29.13796141	      7.39565854	     -3.59950624	     13.07508715	     23.73138618	     -5.54131406	      0.97245090	    -70.32347019	    -16.76528919	      4.90615038	     33.06972138	      8.08075433	     13.26894590	     -7.32481166
      4.30500000	     -7.32518024	     -6.26274836	      7.74133776	     -0.24540104	     -0.02318910	      0.70341493	     19.54310078	      5.74142772	      2.27459194	    -28.38670738	      7.50942058	     -3.86373604	     12.41234352	     24.59026130	     -5.53070813	      0.79456084	    -70.59209432	    -16.44790539	      4.69239734	     33.30781618	      8.04775824	     13.24980421	     -7.01910924
      4.31000000	     -7.29166154	     -6.29464335	      7.57669930	     -0.23828015	     -0.02204775	      0.70367200	     18.64362987	      5.92241957	      2.54696693	    -27.62261684	      7.57330444	     -4.01336379	     12.03400668	     25.48014090	     -5.56097326	      0.62835253	    -70.81602273	    -16.14131563	      4.36312420	     33.44067428	      8.03597269	     13.29435452	     -6.66523531
      4.31500000	     -7.26195883	     -6.27591013	      7.38103839	     -0.23113470	     -0.02094468	      0.70404811	     17.73688210	      6.07542786	      2.93566630	    -26.85907490	      7.62134406	     -4.26474304	     11.59281158	     26.33020180	     -5.55976741	      0.43734138	    -70.94610017	    -15.79992169	      4.11899844	     33.52873883	      8.01186535	     13.27496695	     -6.31627157
      4.32000000	     -7.23705977	     -6.23212685	      7.17723749	     -0.22399131	     -0.01991972	      0.70443611	     16.84039622	      6.19293251	      3.32416021	    -26.11324954	      7.68371977	     -4.47896135	     11.15355528	     27.15988677	     -5.54223488	      0.23450845	    -71.00199042	    -15.44351593	      3.89420685	     33.54369641	      7.98165545	     13.22864875	     -5.94648540
      4.32500000	     -7.22574189	     -6.16518248	      6.96130317	     -0.21688594	     -0.01897221	      0.70484013	     15.96832150	      6.27599534	      3.71526287	    -25.38419941	      7.74287461	     -4.66595425	     10.77130435	     27.98082277	     -5.50669213	      0.02139030	    -70.98122363	    -15.08965083	      3.66689901	     33.47085287	      7.95033422	     13.15545304	     -5.56809269
      4.33000000	     -7.21630249	     -6.07276348	      6.73509891	     -0.20978230	     -0.01811950	      0.70526468	     15.10854750	      6.32860674	      4.12802193	    -24.68298064	      7.81015563	     -4.85272711	     10.39513796	     28.78003979	     -5.46503670	     -0.22390654	    -70.89440920	    -14.71423100	      3.44631179	     33.26692258	      7.90880388	     13.05446408	     -5.16763348
      4.33500000	     -7.22798593	     -5.95869377	      6.49117454	     -0.20270822	     -0.01734318	      0.70571314	     14.28442767	      6.34605604	      4.53092605	    -24.00003933	      7.85491109	     -5.02165994	     10.08948854	     29.57516515	     -5.40843841	     -0.48082982	    -70.72611094	    -14.36676007	      3.20589694	     32.98385694	      7.87174263	     12.92705308	     -4.75798154
      4.34000000	     -7.18778338	     -5.87089728	      6.25034326	     -0.19566580	     -0.01665938	      0.70612496	     13.42236413	      6.38342867	      4.91391618	    -23.34873775	      7.97716564	     -5.09326336	      9.56659192	     30.31213817	     -5.39780277	     -0.74509268	    -70.54399028	    -13.80822448	      3.05778226	     32.13742820	      7.77158511	     12.83909912	     -4.35755527
